<svg width="43" height="42" viewBox="0 0 43 42" fill="none" xmlns="http://www.w3.org/2000/svg">
<circle cx="22" cy="21" r="17" fill="white"/>
<path d="M25.5804 30.0727C25.9248 29.753 26.1098 29.3588 26.1354 28.8901C26.161 28.4211 26.0033 28.0157 25.6624 27.6738L21.3934 23.1619L21.4475 22.9891H21.7795C23.2806 22.9331 24.5179 22.4413 25.4914 21.5138C26.4646 20.5861 27.0641 19.4805 27.2898 18.1972H28.0315C28.3375 18.1972 28.5899 18.0901 28.7889 17.876C28.9878 17.6619 29.0873 17.4018 29.0873 17.0955C29.0873 16.7896 28.9878 16.5366 28.7889 16.3365C28.5899 16.1364 28.3375 16.0363 28.0315 16.0363H27.2566C27.1775 15.5988 27.0391 15.1832 26.8413 14.7895C26.6435 14.3957 26.395 14.0128 26.0957 13.6406H28.0315C28.3375 13.6406 28.5899 13.5336 28.7889 13.3195C28.9878 13.1051 29.0873 12.8449 29.0873 12.539C29.0873 12.233 28.9878 11.98 28.7889 11.7799C28.5899 11.5798 28.3375 11.4798 28.0315 11.4798H16.0139C15.6245 11.4798 15.2919 11.6182 15.0161 11.895C14.7404 12.1718 14.6025 12.5056 14.6025 12.8964C14.6025 13.2872 14.7404 13.6151 15.0161 13.8799C15.2919 14.1447 15.6245 14.2772 16.0139 14.2772H21.1791C21.8798 14.2772 22.4614 14.444 22.9239 14.7777C23.3863 15.1116 23.7118 15.5312 23.9003 16.0363H15.6584C15.3605 16.0363 15.1101 16.1435 14.9071 16.3579C14.704 16.5723 14.6025 16.8326 14.6025 17.1388C14.6025 17.4375 14.704 17.6886 14.9071 17.8922C15.1101 18.0955 15.3605 18.1972 15.6584 18.1972H23.923C23.7345 18.7248 23.4052 19.1722 22.9352 19.5394C22.4652 19.9066 21.8467 20.0902 21.0797 20.0902H18.6033C18.1763 20.0902 17.8039 20.1933 17.486 20.3995C17.1678 20.606 16.929 20.8871 16.7696 21.2426C16.6105 21.5984 16.56 21.9684 16.6182 22.3525C16.6764 22.7369 16.8536 23.0923 17.15 23.4187L23.183 30.0289C23.5018 30.3707 23.895 30.5434 24.3627 30.5469C24.8301 30.5504 25.236 30.3923 25.5804 30.0727ZM21.8449 38.8559C19.3752 38.8559 17.058 38.3875 14.8931 37.4507C12.728 36.5138 10.8446 35.2426 9.24318 33.637C7.642 32.031 6.37429 30.1425 5.44005 27.9713C4.50582 25.8005 4.0387 23.4768 4.0387 21.0002C4.0387 18.5237 4.50582 16.2 5.44005 14.0291C6.37429 11.8579 7.642 9.96938 9.24318 8.36347C10.8446 6.75784 12.728 5.48661 14.8931 4.54978C17.058 3.61295 19.3752 3.14453 21.8449 3.14453C24.3146 3.14453 26.6319 3.61295 28.7967 4.54978C30.9619 5.48661 32.8452 6.75784 34.4467 8.36347C36.0478 9.96938 37.3155 11.8579 38.2498 14.0291C39.184 16.2 39.6511 18.5237 39.6511 21.0002C39.6511 23.4768 39.184 25.8005 38.2498 27.9713C37.3155 30.1425 36.0478 32.031 34.4467 33.637C32.8452 35.2426 30.9619 36.5138 28.7967 37.4507C26.6319 38.3875 24.3146 38.8559 21.8449 38.8559Z" fill="#019863"/>
</svg>
