<svg width="800" height="800" viewBox="0 0 800 800" fill="none" xmlns="http://www.w3.org/2000/svg">
<g clip-path="url(#clip0_49_712)">
<path d="M400 800C620.914 800 800 620.914 800 400C800 179.086 620.914 0 400 0C179.086 0 0 179.086 0 400C0 620.914 179.086 800 400 800Z" fill="#546EE5"/>
<path d="M9.2778e-08 400.011C9.2778e-08 426.722 2.62031 452.817 7.61719 478.062C31.8531 600.503 138.9 687.977 263.711 688.88C265.305 688.891 266.9 688.894 268.5 688.886C489.056 687.897 666.673 509.437 666.669 288.88C666.667 196.773 635.513 111.953 583.195 44.3374C527.8 15.7468 464.873 -0.295378 398.169 0.00462163C177.614 0.993684 -0.00468741 179.451 9.2778e-08 400.011Z" fill="#8397F0"/>
<path d="M490.31 133.722C396.111 39.5251 234.547 48.3673 129.442 153.472C24.3377 258.575 15.4955 420.141 109.694 514.338C203.892 608.536 365.456 599.694 470.561 494.589C575.663 389.486 584.505 227.92 490.31 133.722Z" fill="#E7E4CD"/>
<path d="M233.332 88.8892C230.718 88.8892 228.126 88.9673 225.548 89.1048C190.989 103.311 158.112 124.8 129.442 153.474C115.873 167.041 103.921 181.556 93.5777 196.741C90.5246 208.427 88.8887 220.689 88.8887 233.334C88.8887 313.108 153.561 377.778 233.332 377.778C313.104 377.778 377.776 313.106 377.776 233.334C377.776 153.563 313.106 88.8892 233.332 88.8892Z" fill="#FEFBE1"/>
<path d="M313.386 123.353C318.2 147.675 325.026 172.951 333.953 199.058C364.175 204.584 394.915 210.2 426.184 215.914C456.793 221.512 465.751 258.578 442.282 278.245C418.165 298.03 395.111 318.012 373.115 338.112C380.909 370.317 391.406 403.392 404.732 437.108C418.206 471.133 392 493.544 357.643 474.866C322.461 455.575 277.301 435.575 245.115 417.139C218.314 429.891 204.415 440.883 177.414 456.325C153.993 469.719 116.731 440.731 118.092 410.081C119.471 379.534 123.086 349.381 128.84 319.834C114.271 292.917 109.456 290.444 98.1027 256.967C89.2699 230.92 98.9809 208.047 127.162 201.108C151.4 195.139 159.582 194.797 189.387 192.266C208.628 168.097 229.492 144.43 251.971 121.412C273.546 99.7749 309.278 100.748 313.386 123.353Z" fill="#67A0C0"/>
<path d="M377.779 233.333C377.779 224.197 376.893 215.275 375.269 206.611C361.396 204.075 347.613 201.558 333.952 199.06C325.025 172.953 318.199 147.675 313.388 123.355C309.279 100.75 273.547 99.7768 251.971 121.408C229.491 144.425 208.629 168.092 189.388 192.261C159.583 194.794 151.402 195.135 127.163 201.103C98.9802 208.046 89.2692 230.917 98.1036 256.963C109.457 290.441 114.272 292.914 128.841 319.831C128.127 323.499 127.446 327.174 126.799 330.858C153.208 359.688 191.155 377.775 233.335 377.775C313.107 377.778 377.779 313.106 377.779 233.333Z" fill="#A1C5D1"/>
</g>
<defs>
<clipPath id="clip0_49_712">
<rect width="800" height="800" fill="white"/>
</clipPath>
</defs>
</svg>
